name Walk6.mot
datacolumns 19
datarows 20
range 1.89700000 1.91600000
endheader

                time	   L_ground_force_vx	   L_ground_force_vy	   L_ground_force_vz	   L_ground_force_px	   L_ground_force_py	   L_ground_force_pz	   R_ground_force_vx	   R_ground_force_vy	   R_ground_force_vz	   R_ground_force_px	   R_ground_force_py	   R_ground_force_pz	   L_ground_torque_x	   L_ground_torque_y	   L_ground_torque_z	   R_ground_torque_x	   R_ground_torque_y	   R_ground_torque_z	
          1.89700000	         -7.96409327	         28.51560852	          6.33127529	          0.76448242	          0.00000000	          0.02818025	          0.00000000	          0.00000000	          0.00000000	          0.00000000	          0.00000000	          0.00000000	          0.00000000	          1.06674848	          0.00000000	          0.00000000	          0.00000000	          0.00000000	
          1.89800000	         -7.85185488	         28.38033791	          6.34325425	          0.76347380	          0.00000000	          0.02799663	          0.00000000	          0.00000000	          0.00000000	          0.00000000	          0.00000000	          0.00000000	          0.00000000	          1.03939886	          0.00000000	          0.00000000	          0.00000000	          0.00000000	
          1.89900000	         -7.72587358	         28.12227090	          6.33747847	          0.76405700	          0.00000000	          0.02739078	          0.00000000	          0.00000000	          0.00000000	          0.00000000	          0.00000000	          0.00000000	          0.00000000	          1.01872152	          0.00000000	          0.00000000	          0.00000000	          0.00000000	
          1.90000000	         -7.59151788	         27.72368695	          6.30527552	          0.76625882	          0.00000000	          0.02619573	          0.00000000	          0.00000000	          0.00000000	          0.00000000	          0.00000000	          0.00000000	          0.00000000	          1.00721752	          0.00000000	          0.00000000	          0.00000000	          0.00000000	
          1.90100000	         -7.45082916	         27.22075483	          6.25090056	          0.76983907	          0.00000000	          0.02410777	          0.00000000	          0.00000000	          0.00000000	          0.00000000	          0.00000000	          0.00000000	          0.00000000	          1.00843344	          0.00000000	          0.00000000	          0.00000000	          0.00000000	
          1.90200000	         -7.31278279	         26.70702174	          6.18678550	          0.77414940	          0.00000000	          0.02140977	          0.00000000	          0.00000000	          0.00000000	          0.00000000	          0.00000000	          0.00000000	          0.00000000	          1.02229180	          0.00000000	          0.00000000	          0.00000000	          0.00000000	
          1.90300000	         -7.19262846	         26.28662854	          6.12786401	          0.77821203	          0.00000000	          0.01917191	          0.00000000	          0.00000000	          0.00000000	          0.00000000	          0.00000000	          0.00000000	          0.00000000	          1.04463226	          0.00000000	          0.00000000	          0.00000000	          0.00000000	
          1.90400000	         -7.09878496	         26.01455212	          6.08419441	          0.78130786	          0.00000000	          0.01850809	          0.00000000	          0.00000000	          0.00000000	          0.00000000	          0.00000000	          0.00000000	          0.00000000	          1.07198342	          0.00000000	          0.00000000	          0.00000000	          0.00000000	
          1.90500000	         -7.02495171	         25.86916626	          6.06132336	          0.78318964	          0.00000000	          0.01970790	          0.00000000	          0.00000000	          0.00000000	          0.00000000	          0.00000000	          0.00000000	          0.00000000	          1.10298994	          0.00000000	          0.00000000	          0.00000000	          0.00000000	
          1.90600000	         -6.95441764	         25.76988889	          6.06384214	          0.78365732	          0.00000000	          0.02202775	          0.00000000	          0.00000000	          0.00000000	          0.00000000	          0.00000000	          0.00000000	          0.00000000	          1.13201705	          0.00000000	          0.00000000	          0.00000000	          0.00000000	
          1.90700000	         -6.87547046	         25.62474391	          6.08621802	          0.78270702	          0.00000000	          0.02427207	          0.00000000	          0.00000000	          0.00000000	          0.00000000	          0.00000000	          0.00000000	          0.00000000	          1.14730401	          0.00000000	          0.00000000	          0.00000000	          0.00000000	
          1.90800000	         -6.79395511	         25.37602464	          6.10689631	          0.78097546	          0.00000000	          0.02560833	          0.00000000	          0.00000000	          0.00000000	          0.00000000	          0.00000000	          0.00000000	          0.00000000	          1.13942277	          0.00000000	          0.00000000	          0.00000000	          0.00000000	
          1.90900000	         -6.72200110	         25.01180850	          6.10407965	          0.77937024	          0.00000000	          0.02587281	          0.00000000	          0.00000000	          0.00000000	          0.00000000	          0.00000000	          0.00000000	          0.00000000	          1.10959536	          0.00000000	          0.00000000	          0.00000000	          0.00000000	
          1.91000000	         -6.66070705	         24.56294246	          6.07228519	          0.77843879	          0.00000000	          0.02537799	          0.00000000	          0.00000000	          0.00000000	          0.00000000	          0.00000000	          0.00000000	          0.00000000	          1.07059068	          0.00000000	          0.00000000	          0.00000000	          0.00000000	
          1.91100000	         -6.59993646	         24.09048263	          6.01646914	          0.77837539	          0.00000000	          0.02456718	          0.00000000	          0.00000000	          0.00000000	          0.00000000	          0.00000000	          0.00000000	          0.00000000	          1.03950441	          0.00000000	          0.00000000	          0.00000000	          0.00000000	
          1.91200000	         -6.53002169	         23.64356837	          5.93845804	          0.77898414	          0.00000000	          0.02378969	          0.00000000	          0.00000000	          0.00000000	          0.00000000	          0.00000000	          0.00000000	          0.00000000	          1.02387368	          0.00000000	          0.00000000	          0.00000000	          0.00000000	
          1.91300000	         -6.45607655	         23.23035168	          5.84251831	          0.77955615	          0.00000000	          0.02336588	          0.00000000	          0.00000000	          0.00000000	          0.00000000	          0.00000000	          0.00000000	          0.00000000	          1.01679378	          0.00000000	          0.00000000	          0.00000000	          0.00000000	
          1.91400000	         -6.39479318	         22.82899478	          5.74462493	          0.77960405	          0.00000000	          0.02352136	          0.00000000	          0.00000000	          0.00000000	          0.00000000	          0.00000000	          0.00000000	          0.00000000	          1.00872803	          0.00000000	          0.00000000	          0.00000000	          0.00000000	
          1.91500000	         -6.35127565	         22.41279847	          5.66329248	          0.77947457	          0.00000000	          0.02406110	          0.00000000	          0.00000000	          0.00000000	          0.00000000	          0.00000000	          0.00000000	          0.00000000	          0.99770891	          0.00000000	          0.00000000	          0.00000000	          0.00000000	
          1.91600000	         -6.31111609	         21.97453908	          5.61052670	          0.77987508	          0.00000000	          0.02445957	          0.00000000	          0.00000000	          0.00000000	          0.00000000	          0.00000000	          0.00000000	          0.00000000	          0.98842073	          0.00000000	          0.00000000	          0.00000000	          0.00000000	
